<?xml version="1.0" encoding="UTF-8" standalone="no"?>
<svg
   xmlns:dc="http://purl.org/dc/elements/1.1/"
   xmlns:cc="http://web.resource.org/cc/"
   xmlns:rdf="http://www.w3.org/1999/02/22-rdf-syntax-ns#"
   xmlns:svg="http://www.w3.org/2000/svg"
   xmlns="http://www.w3.org/2000/svg"
   xmlns:xlink="http://www.w3.org/1999/xlink"
   xmlns:sodipodi="http://sodipodi.sourceforge.net/DTD/sodipodi-0.dtd"
   xmlns:inkscape="http://www.inkscape.org/namespaces/inkscape"
   version="1.0"
   width="120"
   height="400"
   id="svg2"
   sodipodi:version="0.32"
   inkscape:version="0.45"
   sodipodi:docname="Graph_ungerichtet.svg"
   sodipodi:docbase="/home/tk/Desktop/Graph"
   inkscape:output_extension="org.inkscape.output.svg.inkscape"
   sodipodi:modified="true">
  <metadata
     id="metadata20">
    <rdf:RDF>
      <cc:Work
         rdf:about="">
        <dc:format>image/svg+xml</dc:format>
        <dc:type
           rdf:resource="http://purl.org/dc/dcmitype/StillImage" />
      </cc:Work>
    </rdf:RDF>
  </metadata>
  <sodipodi:namedview
     inkscape:window-height="626"
     inkscape:window-width="910"
     inkscape:pageshadow="2"
     inkscape:pageopacity="0.0"
     guidetolerance="10.0"
     gridtolerance="10.0"
     objecttolerance="10.0"
     borderopacity="1.0"
     bordercolor="#666666"
     pagecolor="#ffffff"
     id="base"
     inkscape:zoom="1.0175"
     inkscape:cx="60"
     inkscape:cy="200"
     inkscape:window-x="0"
     inkscape:window-y="25"
     inkscape:current-layer="svg2" />
  <defs
     id="defs4" />
  <path
     id="circleA"
     style="fill:none;fill-opacity:1;fill-rule:evenodd;stroke:#000000;stroke-width:1.5;stroke-linecap:square;stroke-linejoin:round;stroke-miterlimit:4;stroke-dasharray:none;stroke-dashoffset:0;stroke-opacity:1"
     d="M 93.936497,68.723922 C 86.558199,79.7326 71.653526,82.677304 60.643056,75.301681 C 49.632586,67.926057 46.684261,53.0221 54.057209,42.009839 C 61.430157,30.997577 76.333397,28.045631 87.347449,35.415903 C 98.361502,42.786176 101.31707,57.688698 93.949473,68.704541" />
  <use
     xlink:href="#circleA"
     height="1052.3622"
     width="744.09448"
     y="0"
     x="0"
     id="circleB"
     transform="translate(-30,96)" />
  <use
     xlink:href="#circleA"
     height="400"
     width="120"
     y="0"
     x="0"
     id="circleC"
     transform="translate(-30,192)" />
  <use
     xlink:href="#circleA"
     height="1052.3622"
     width="744.09448"
     y="0"
     x="0"
     id="circleD"
     transform="translate(0,289)" />
  <path
     id="pathAB"
     style="fill:none;fill-opacity:0.75;fill-rule:evenodd;stroke:#0000ff;stroke-width:1px;stroke-linecap:butt;stroke-linejoin:miter;marker-end:none;stroke-opacity:1"
     d="M 66.5,78.362183 L 51.042894,127.84441" />
  <path
     id="pathBC"
     style="fill:none;fill-opacity:0.75;fill-rule:evenodd;stroke:#0000ff;stroke-width:1px;stroke-linecap:butt;stroke-linejoin:miter;marker-end:none;stroke-opacity:1"
     d="M 44,175.36218 L 44,223.15507" />
  <path
     id="pathCD"
     style="fill:none;fill-opacity:0.75;fill-rule:evenodd;stroke:#0000ff;stroke-width:1px;stroke-linecap:butt;stroke-linejoin:miter;marker-end:none;stroke-opacity:1"
     d="M 51,270.36218 L 66.707107,321.50863" />
  <path
     id="pathDA"
     style="fill:none;fill-opacity:0.75;fill-rule:evenodd;stroke:#0000ff;stroke-width:1px;stroke-linecap:butt;stroke-linejoin:miter;marker-end:none;stroke-opacity:1"
     d="M 77,320.36218 C 82,285.36218 87.474873,115.42284 80.12132,78.362183" />
  <path
     id="textA"
     style="font-size:16px;font-style:normal;font-variant:normal;font-weight:normal;font-stretch:normal;text-align:start;line-height:100%;writing-mode:lr-tb;text-anchor:start;fill:#000000;fill-opacity:1;stroke:none;stroke-width:1px;stroke-linecap:butt;stroke-linejoin:miter;stroke-opacity:1;font-family:Bitstream Vera Sans"
     d="M 74.46875,50.252808 L 72.328125,56.057495 L 76.617188,56.057495 L 74.46875,50.252808 M 73.578125,48.69812 L 75.367188,48.69812 L 79.8125,60.362183 L 78.171875,60.362183 L 77.109375,57.369995 L 71.851562,57.369995 L 70.789062,60.362183 L 69.125,60.362183 L 73.578125,48.69812" />
  <path
     id="textB"
     style="font-size:16px;font-style:normal;font-variant:normal;font-weight:normal;font-stretch:normal;text-align:start;line-height:100%;writing-mode:lr-tb;text-anchor:start;fill:#000000;fill-opacity:1;stroke:none;stroke-width:1px;stroke-linecap:butt;stroke-linejoin:miter;stroke-opacity:1;font-family:Bitstream Vera Sans"
     d="M 42.148438,151.79187 L 42.148438,156.06531 L 44.679688,156.06531 C 45.528639,156.06531 46.156243,155.89083 46.5625,155.54187 C 46.97395,155.18771 47.179679,154.64864 47.179688,153.92468 C 47.179679,153.19552 46.97395,152.65906 46.5625,152.31531 C 46.156243,151.96635 45.528639,151.79188 44.679688,151.79187 L 42.148438,151.79187 M 42.148438,146.995 L 42.148438,150.51062 L 44.484375,150.51062 C 45.255202,150.51063 45.828118,150.3674 46.203125,150.08093 C 46.583326,149.78927 46.77343,149.34657 46.773438,148.75281 C 46.77343,148.16428 46.583326,147.72417 46.203125,147.4325 C 45.828118,147.14084 45.255202,146.99501 44.484375,146.995 L 42.148438,146.995 M 40.570312,145.69812 L 44.601562,145.69812 C 45.804681,145.69813 46.731763,145.94813 47.382812,146.44812 C 48.033845,146.94813 48.359366,147.65907 48.359375,148.58093 C 48.359366,149.29448 48.192699,149.86219 47.859375,150.28406 C 47.526033,150.70594 47.03645,150.96896 46.390625,151.07312 C 47.166658,151.23979 47.76822,151.58875 48.195312,152.12 C 48.627595,152.64604 48.84374,153.3049 48.84375,154.09656 C 48.84374,155.13823 48.489574,155.94291 47.78125,156.51062 C 47.072909,157.07833 46.065097,157.36218 44.757812,157.36218 L 40.570312,157.36218 L 40.570312,145.69812" />
  <path
     id="textC"
     style="font-size:16px;font-style:normal;font-variant:normal;font-weight:normal;font-stretch:normal;text-align:start;line-height:100%;writing-mode:lr-tb;text-anchor:start;fill:#000000;fill-opacity:1;stroke:none;stroke-width:1px;stroke-linecap:butt;stroke-linejoin:miter;stroke-opacity:1;font-family:Bitstream Vera Sans"
     d="M 48.304688,242.59656 L 48.304688,244.26062 C 47.773428,243.76584 47.20572,243.39605 46.601562,243.15125 C 46.002596,242.90646 45.364576,242.78407 44.6875,242.78406 C 43.354161,242.78407 42.333329,243.19292 41.625,244.01062 C 40.916664,244.82313 40.562497,246.00021 40.5625,247.54187 C 40.562497,249.07833 40.916664,250.25541 41.625,251.07312 C 42.333329,251.88562 43.354161,252.29187 44.6875,252.29187 C 45.364576,252.29187 46.002596,252.16948 46.601562,251.92468 C 47.20572,251.67989 47.773428,251.3101 48.304688,250.81531 L 48.304688,252.46375 C 47.752594,252.83875 47.166657,253.12 46.546875,253.3075 C 45.932284,253.49499 45.281243,253.58874 44.59375,253.58875 C 42.82812,253.58874 41.437497,253.04968 40.421875,251.97156 C 39.406249,250.88823 38.898437,249.41167 38.898438,247.54187 C 38.898437,245.66688 39.406249,244.19032 40.421875,243.11218 C 41.437497,242.02886 42.82812,241.48719 44.59375,241.48718 C 45.291659,241.48719 45.947909,241.58094 46.5625,241.76843 C 47.182282,241.95074 47.763011,242.22678 48.304688,242.59656" />
  <path
     id="textD"
     style="font-size:16px;font-style:normal;font-variant:normal;font-weight:normal;font-stretch:normal;text-align:start;line-height:100%;writing-mode:lr-tb;text-anchor:start;fill:#000000;fill-opacity:1;stroke:none;stroke-width:1px;stroke-linecap:butt;stroke-linejoin:miter;stroke-opacity:1;font-family:Bitstream Vera Sans"
     d="M 71.148438,338.995 L 71.148438,348.06531 L 73.054688,348.06531 C 74.664056,348.06531 75.841138,347.70073 76.585938,346.97156 C 77.335928,346.24239 77.710928,345.09135 77.710938,343.51843 C 77.710928,341.95594 77.335928,340.81271 76.585938,340.08875 C 75.841138,339.35959 74.664056,338.99501 73.054688,338.995 L 71.148438,338.995 M 69.570312,337.69812 L 72.8125,337.69812 C 75.07291,337.69813 76.731762,338.16949 77.789062,339.11218 C 78.846343,340.04969 79.374989,341.51844 79.375,343.51843 C 79.374989,345.52885 78.843739,347.00541 77.78125,347.94812 C 76.718741,348.89083 75.062493,349.36218 72.8125,349.36218 L 69.570312,349.36218 L 69.570312,337.69812" />
</svg>
